<?xml version="1.0" standalone="no"?>
<!DOCTYPE svg PUBLIC "-//W3C//DTD SVG 20010904//EN"
 "http://www.w3.org/TR/2001/REC-SVG-20010904/DTD/svg10.dtd">
<svg version="1.0" xmlns="http://www.w3.org/2000/svg"
 width="522.000000pt" height="522.000000pt" viewBox="0 0 522.000000 522.000000"
 preserveAspectRatio="xMidYMid meet">
<metadata>
Created by potrace 1.14, written by Peter Selinger 2001-2017
</metadata>
<g transform="translate(0.000000,522.000000) scale(0.100000,-0.100000)"
fill="#000000" stroke="none">
<path d="M820 5160 c-217 -30 -392 -179 -472 -400 l-23 -65 0 -1930 c0 -1878
1 -1931 19 -1980 25 -65 94 -137 159 -166 l52 -24 707 0 708 0 27 27 c38 39
38 97 0 136 l-27 27 -695 3 -694 3 -31 30 -30 31 2 1916 3 1917 31 65 c39 83
101 145 184 184 l65 31 1537 3 c846 1 1538 0 1538 -3 0 -3 -14 -24 -31 -47
-33 -46 -59 -101 -86 -182 -17 -47 -18 -169 -23 -1743 -5 -1689 -5 -1692 -26
-1719 -36 -49 -70 -67 -131 -72 -49 -3 -64 0 -93 20 -19 13 -44 38 -57 56 -12
18 -56 137 -99 265 -42 128 -85 249 -95 269 -57 112 -196 181 -320 158 -158
-30 -259 -153 -259 -315 l0 -64 -280 -3 -280 -3 -27 -28 c-38 -38 -38 -96 0
-134 l27 -28 280 -3 280 -3 0 -297 c0 -314 9 -411 52 -537 23 -70 152 -383
180 -438 40 -79 141 -81 173 -4 18 43 17 45 -78 272 -137 330 -139 344 -135
910 3 372 5 412 21 436 36 54 116 65 165 24 26 -22 43 -63 117 -285 56 -169
98 -277 118 -307 92 -136 274 -192 432 -133 82 32 174 122 206 205 l24 60 3
894 3 895 85 -85 c257 -253 385 -512 414 -841 13 -144 13 -1133 0 -1298 -16
-211 -66 -415 -146 -602 -39 -92 -43 -135 -13 -167 44 -47 103 -48 143 -1 48
57 140 322 175 503 36 187 41 295 41 918 0 643 -5 738 -45 899 -76 302 -190
485 -486 780 l-169 168 0 50 0 51 363 3 c356 3 363 3 414 27 65 29 134 101
159 166 18 47 19 81 19 540 0 487 0 490 -23 560 -66 196 -204 331 -402 393
-51 15 -195 17 -1825 18 -974 1 -1795 -2 -1825 -6z m3660 -226 c83 -39 145
-101 184 -184 l31 -65 3 -483 3 -483 -30 -29 -29 -30 -351 0 -352 0 3 513 3
512 31 65 c68 144 195 222 354 217 71 -2 95 -7 150 -33z"/>
<path d="M1014 4620 c-58 -13 -101 -48 -128 -102 -26 -52 -26 -53 -26 -308 0
-253 0 -257 25 -306 27 -54 74 -91 132 -105 53 -12 468 -11 523 2 59 13 108
52 131 103 17 37 19 69 19 306 0 237 -2 269 -19 306 -23 51 -72 90 -131 103
-51 12 -478 13 -526 1z m486 -410 l0 -220 -225 0 -225 0 0 220 0 220 225 0
225 0 0 -220z"/>
<path d="M2114 3983 c-65 -13 -92 -110 -44 -157 60 -59 160 -19 160 64 0 27
-7 45 -26 64 -15 14 -30 26 -35 26 -4 0 -13 2 -21 4 -7 2 -23 1 -34 -1z"/>
<path d="M2573 3983 c-12 -2 -33 -16 -47 -30 -57 -57 -19 -145 67 -158 23 -4
196 -5 384 -3 l343 3 27 28 c38 38 38 96 0 134 l-27 28 -363 1 c-199 1 -372 0
-384 -3z"/>
<path d="M1014 3420 c-58 -13 -101 -48 -128 -102 -26 -52 -26 -53 -26 -308 0
-253 0 -257 25 -306 27 -54 74 -91 132 -105 53 -12 468 -11 523 2 59 13 108
52 131 103 17 37 19 69 19 306 0 237 -2 269 -19 306 -23 51 -72 90 -131 103
-51 12 -478 13 -526 1z m486 -410 l0 -220 -225 0 -225 0 0 220 0 220 225 0
225 0 0 -220z"/>
<path d="M2114 2783 c-32 -6 -64 -45 -70 -85 -5 -30 -1 -41 24 -69 l30 -34
611 0 611 0 27 27 c38 39 38 97 0 136 l-27 27 -593 1 c-325 1 -602 0 -613 -3z"/>
<path d="M1014 2220 c-58 -13 -101 -48 -128 -102 -26 -52 -26 -53 -26 -308 0
-253 0 -257 25 -306 27 -54 74 -91 132 -105 53 -12 468 -11 523 2 59 13 108
52 131 103 17 37 19 69 19 306 0 237 -2 269 -19 306 -23 51 -72 90 -131 103
-51 12 -478 13 -526 1z m486 -410 l0 -220 -225 0 -225 0 0 220 0 220 225 0
225 0 0 -220z"/>
<path d="M2332 775 c-21 -9 -38 -27 -48 -50 -20 -49 1 -100 51 -120 31 -14 39
-14 70 0 78 32 78 138 1 170 -41 18 -33 18 -74 0z"/>
</g>
</svg>
